<svg aria-hidden="true" style="position: absolute; width: 0; height: 0; overflow: hidden;" version="1.1" xmlns="http://www.w3.org/2000/svg" xmlns:xlink="http://www.w3.org/1999/xlink">
<defs>
<symbol id="ai-azure" viewBox="0 0 40 32">
<title>azure</title>
<path d="M21.909 0.002l-11.821 10.251-10.088 18.107h9.096zM23.482 2.4l-5.045 14.22 9.673 12.154-18.767 3.224h30.757z"></path>
</symbol>
<symbol id="ai-itchio" viewBox="0 0 36 32">
<title>itchio</title>
<path d="M4.496 0.002l-4.496 5.62v1.574c0 4.496 7.343 4.496 7.343 0 0 4.496 7.043 4.496 7.043 0 0 4.496 7.343 4.496 7.343 0 0 4.496 7.044 4.496 7.044 0 0 4.496 7.343 4.496 7.343 0v-1.574l-4.496-5.62h-27.125zM7.268 9.893c-0.225 0.3-0.45 0.524-0.674 0.749-0.824 0.674-1.874 0.974-2.922 0.974-0.3 0-0.6 0-0.824-0.075v20.457h30.348v-20.457c-0.3 0.075-0.525 0.075-0.825 0.075-1.049 0-2.098-0.3-2.922-0.974-0.224-0.225-0.449-0.45-0.674-0.749-0.226 0.3-0.376 0.524-0.675 0.749-0.825 0.674-1.873 0.974-2.848 0.974-1.048 0-2.098-0.3-2.848-0.974-0.224-0.225-0.449-0.45-0.674-0.749-0.225 0.3-0.449 0.524-0.674 0.749-0.973 0.749-2.023 1.049-3.072 1.049s-2.098-0.3-2.922-0.974c-0.225-0.225-0.449-0.449-0.674-0.749-0.225 0.3-0.375 0.525-0.674 0.749-0.825 0.674-1.874 0.974-2.848 0.974-1.049 0-2.098-0.3-2.847-0.974-0.225-0.225-0.449-0.449-0.674-0.749l-0.075-0.075zM11.315 12.965c1.723 0 2.472 0.45 3.372 2.248h6.669c0.375-1.798 1.124-2.248 3.373-2.248 1.723 0 4.645 1.649 5.095 3.971l2.248 8.767c0.449 2.248-0.824 3.896-3.072 3.896-1.574 0-3.597-1.049-4.945-3.896h-11.991c-1.349 2.922-3.372 3.896-4.946 3.896-2.248 0-3.522-1.649-3.072-3.896l2.248-8.767c0.449-2.323 3.372-3.971 5.095-3.971h-0.075zM17.984 16.037l-5.32 5.62h2.248v2.847h6.22v-2.771h2.247l-5.395-5.695z"></path>
</symbol>
</defs>
</svg>
